<svg width="213" height="34" viewBox="0 0 213 34" fill="none" xmlns="http://www.w3.org/2000/svg">
<path d="M15.388 33.23C12.588 33.23 10.04 32.572 7.744 31.256C5.476 29.968 3.67 28.092 2.326 25.628C0.982 23.164 0.31 20.266 0.31 16.934C0.31 13.63 0.996 10.746 2.368 8.282C3.74 5.818 5.56 3.942 7.828 2.654C10.096 1.338 12.532 0.679998 15.136 0.679998C17.18 0.679998 19.042 1.03 20.722 1.73C22.43 2.402 23.858 3.424 25.006 4.796C25.146 4.936 25.216 5.104 25.216 5.3C25.216 5.524 25.09 5.762 24.838 6.014C23.97 6.938 23.102 7.596 22.234 7.988C22.122 8.044 21.982 8.072 21.814 8.072C21.562 8.072 21.31 7.946 21.058 7.694C20.414 6.966 19.56 6.42 18.496 6.056C17.432 5.664 16.312 5.468 15.136 5.468C13.68 5.468 12.266 5.916 10.894 6.812C9.522 7.708 8.402 9.024 7.534 10.76C6.666 12.468 6.232 14.526 6.232 16.934C6.232 19.398 6.652 21.498 7.492 23.234C8.36 24.97 9.494 26.272 10.894 27.14C12.322 28.008 13.876 28.442 15.556 28.442C16.984 28.442 18.272 28.148 19.42 27.56C20.596 26.972 21.548 26.104 22.276 24.956C22.444 24.62 22.668 24.452 22.948 24.452C23.088 24.452 23.242 24.494 23.41 24.578C24.446 25.054 25.44 25.656 26.392 26.384C26.728 26.58 26.896 26.818 26.896 27.098C26.896 27.21 26.854 27.336 26.77 27.476C25.622 29.408 24.054 30.85 22.066 31.802C20.106 32.754 17.88 33.23 15.388 33.23ZM31.8825 33.23C30.9305 33.23 30.1185 33.202 29.4465 33.146C29.2505 33.118 29.1525 33.006 29.1525 32.81C29.1525 32.698 29.1945 32.53 29.2785 32.306C30.2585 30.122 32.2185 24.984 35.1585 16.892C38.0985 8.8 39.7085 4.292 39.9885 3.368C40.1565 2.752 40.2405 2.276 40.2405 1.94C40.2405 1.408 40.2825 1.072 40.3665 0.931998C40.4505 0.763998 40.6885 0.679998 41.0805 0.679998C41.7525 0.679998 42.5365 0.763998 43.4325 0.931998C44.3565 1.072 45.1685 1.24 45.8685 1.436C46.4565 1.632 46.6665 1.94 46.4985 2.36L45.8685 4.292C44.8885 7.232 43.0965 12.202 40.4925 19.202C37.8885 26.202 36.1665 30.71 35.3265 32.726C35.1865 33.006 34.7805 33.16 34.1085 33.188L31.8825 33.23ZM39.9045 25.628C39.9045 25.488 40.0725 24.956 40.4085 24.032C40.7725 23.08 41.0665 22.394 41.2905 21.974C41.4025 21.778 41.5145 21.624 41.6265 21.512C41.7665 21.4 41.9905 21.344 42.2985 21.344H47.6325L47.2545 20.294C45.9665 16.598 45.1825 14.288 44.9025 13.364C44.8185 13.14 44.7765 12.916 44.7765 12.692C44.7765 12.468 44.8045 12.3 44.8605 12.188L47.0025 6.35C47.1705 5.818 47.3525 5.552 47.5485 5.552C47.6605 5.552 47.7585 5.692 47.8425 5.972C49.0185 9.332 50.7265 13.966 52.9665 19.874C55.2065 25.782 56.8305 29.926 57.8385 32.306C57.9225 32.53 57.9645 32.698 57.9645 32.81C57.9645 33.006 57.8665 33.118 57.6705 33.146C56.9985 33.202 56.1725 33.23 55.1925 33.23L52.9245 33.188C52.1965 33.16 51.7905 33.006 51.7065 32.726C51.0345 30.934 50.2225 28.708 49.2705 26.048H40.4925C40.1005 26.048 39.9045 25.908 39.9045 25.628ZM63.4442 33.23C63.2482 33.23 62.9962 33.132 62.6882 32.936C62.3802 32.74 62.2262 32.544 62.2262 32.348V8.24C62.2262 7.904 62.3242 7.666 62.5202 7.526C62.7162 7.386 63.0242 7.288 63.4442 7.232C64.1162 7.176 64.7042 7.148 65.2082 7.148C65.7122 7.148 66.3002 7.176 66.9722 7.232C67.3642 7.288 67.6442 7.386 67.8122 7.526C68.0082 7.666 68.1062 7.904 68.1062 8.24V15.59H72.6422C74.7982 15.59 76.4362 15.128 77.5562 14.204C78.6762 13.28 79.2362 12.076 79.2362 10.592C79.2362 9.108 78.6762 7.918 77.5562 7.022C76.4362 6.126 74.7982 5.678 72.6422 5.678H63.0242C62.7722 5.678 62.5482 5.622 62.3522 5.51C62.1562 5.398 62.0442 5.244 62.0162 5.048C61.9042 4.544 61.8482 3.942 61.8482 3.242C61.8482 2.486 61.9042 1.884 62.0162 1.436C62.0722 1.268 62.1842 1.128 62.3522 1.016C62.5202 0.875999 62.7302 0.805999 62.9822 0.805999H72.9362C76.8282 0.805999 79.8382 1.674 81.9662 3.41C84.0942 5.146 85.1582 7.54 85.1582 10.592C85.1582 12.832 84.5562 14.75 83.3522 16.346C82.1762 17.914 80.4822 19.048 78.2702 19.748C79.7542 21.96 81.9802 25.404 84.9482 30.08L86.3762 32.264C86.4882 32.404 86.5442 32.558 86.5442 32.726C86.5442 32.922 86.4322 33.048 86.2082 33.104C85.5362 33.16 84.6822 33.188 83.6462 33.188L81.2522 33.146C80.6362 33.118 80.2302 32.964 80.0342 32.684L72.4742 20.462H68.1062V31.424C68.1062 31.62 68.0222 31.788 67.8542 31.928C67.6862 32.068 67.3922 32.222 66.9722 32.39C66.4962 32.586 65.8522 32.768 65.0402 32.936C64.2562 33.132 63.7242 33.23 63.4442 33.23ZM92.4423 33.23C92.2463 33.23 91.9943 33.132 91.6863 32.936C91.3783 32.74 91.2243 32.544 91.2243 32.348V3.116C91.2243 2.612 91.1403 2.15 90.9723 1.73C90.8603 1.45 90.8883 1.212 91.0563 1.016C91.2243 0.819998 91.5183 0.707998 91.9383 0.679998C91.9943 0.679998 92.0923 0.679998 92.2323 0.679998C92.4003 0.651999 92.5403 0.651999 92.6523 0.679998C92.9043 0.651999 93.3523 0.637999 93.9963 0.637999C95.2563 0.637999 96.2223 0.665999 96.8943 0.721998C97.5663 0.749999 97.9723 0.904 98.1123 1.184L105.966 16.136L113.694 1.31C113.862 0.973999 114.198 0.805999 114.702 0.805999H119.322C119.77 0.805999 119.994 0.959999 119.994 1.268C119.994 1.436 119.938 1.618 119.826 1.814L107.058 25.754C107.002 25.866 106.862 25.964 106.638 26.048C106.442 26.104 106.218 26.132 105.966 26.132C105.35 26.132 104.972 26.006 104.832 25.754L97.1043 10.802V31.424C97.1043 31.62 97.0203 31.788 96.8523 31.928C96.6843 32.068 96.3903 32.222 95.9703 32.39C95.4943 32.586 94.8503 32.768 94.0383 32.936C93.2543 33.132 92.7223 33.23 92.4423 33.23ZM114.786 15.254C114.786 14.946 114.884 14.61 115.08 14.246L119.658 5.216C119.966 4.656 120.204 4.376 120.372 4.376C120.568 4.376 120.666 4.642 120.666 5.174V31.424C120.666 31.62 120.582 31.788 120.414 31.928C120.246 32.068 119.952 32.222 119.532 32.39C119.056 32.586 118.412 32.768 117.6 32.936C116.816 33.132 116.284 33.23 116.004 33.23C115.808 33.23 115.556 33.132 115.248 32.936C114.94 32.74 114.786 32.544 114.786 32.348V15.254ZM141.261 33.23C138.545 33.23 136.067 32.586 133.827 31.298C131.587 30.01 129.809 28.134 128.493 25.67C127.205 23.206 126.561 20.294 126.561 16.934C126.561 13.574 127.205 10.676 128.493 8.24C129.809 5.776 131.587 3.9 133.827 2.612C136.067 1.324 138.545 0.679998 141.261 0.679998C143.977 0.679998 146.441 1.324 148.653 2.612C150.893 3.9 152.657 5.776 153.945 8.24C155.261 10.676 155.919 13.574 155.919 16.934C155.919 20.294 155.261 23.206 153.945 25.67C152.657 28.134 150.893 30.01 148.653 31.298C146.441 32.586 143.977 33.23 141.261 33.23ZM132.483 16.934C132.483 19.398 132.875 21.498 133.659 23.234C134.471 24.97 135.535 26.272 136.851 27.14C138.195 28.008 139.665 28.442 141.261 28.442C142.857 28.442 144.313 28.008 145.629 27.14C146.945 26.272 147.995 24.97 148.779 23.234C149.591 21.498 149.997 19.398 149.997 16.934C149.997 14.47 149.591 12.384 148.779 10.676C147.995 8.94 146.945 7.638 145.629 6.77C144.313 5.902 142.857 5.468 141.261 5.468C139.665 5.468 138.195 5.902 136.851 6.77C135.535 7.638 134.471 8.94 133.659 10.676C132.875 12.384 132.483 14.47 132.483 16.934ZM162.989 33.23C162.793 33.23 162.541 33.132 162.233 32.936C161.925 32.74 161.771 32.544 161.771 32.348V8.24C161.771 7.904 161.869 7.666 162.065 7.526C162.261 7.386 162.569 7.288 162.989 7.232C163.661 7.176 164.249 7.148 164.753 7.148C165.257 7.148 165.845 7.176 166.517 7.232C166.909 7.288 167.189 7.386 167.357 7.526C167.553 7.666 167.651 7.904 167.651 8.24V15.59H172.187C174.343 15.59 175.981 15.128 177.101 14.204C178.221 13.28 178.781 12.076 178.781 10.592C178.781 9.108 178.221 7.918 177.101 7.022C175.981 6.126 174.343 5.678 172.187 5.678H162.569C162.317 5.678 162.093 5.622 161.897 5.51C161.701 5.398 161.589 5.244 161.561 5.048C161.449 4.544 161.393 3.942 161.393 3.242C161.393 2.486 161.449 1.884 161.561 1.436C161.617 1.268 161.729 1.128 161.897 1.016C162.065 0.875999 162.275 0.805999 162.527 0.805999H172.481C176.373 0.805999 179.383 1.674 181.511 3.41C183.639 5.146 184.703 7.54 184.703 10.592C184.703 12.832 184.101 14.75 182.897 16.346C181.721 17.914 180.027 19.048 177.815 19.748C179.299 21.96 181.525 25.404 184.493 30.08L185.921 32.264C186.033 32.404 186.089 32.558 186.089 32.726C186.089 32.922 185.977 33.048 185.753 33.104C185.081 33.16 184.227 33.188 183.191 33.188L180.797 33.146C180.181 33.118 179.775 32.964 179.579 32.684L172.019 20.462H167.651V31.424C167.651 31.62 167.567 31.788 167.399 31.928C167.231 32.068 166.937 32.222 166.517 32.39C166.041 32.586 165.397 32.768 164.585 32.936C163.801 33.132 163.269 33.23 162.989 33.23ZM194.717 33.104C193.345 33.076 192.351 32.782 191.735 32.222C191.119 31.662 190.797 30.752 190.769 29.492V23.402V8.24C190.769 7.904 190.867 7.666 191.063 7.526C191.259 7.386 191.567 7.288 191.987 7.232C192.659 7.176 193.247 7.148 193.751 7.148C194.255 7.148 194.843 7.176 195.515 7.232C195.907 7.288 196.187 7.386 196.355 7.526C196.551 7.666 196.649 7.904 196.649 8.24C196.649 10.508 196.635 12.58 196.607 14.456H208.787C209.039 14.456 209.249 14.512 209.417 14.624C209.585 14.708 209.697 14.834 209.753 15.002C209.865 15.31 209.921 15.898 209.921 16.766C209.921 17.606 209.865 18.194 209.753 18.53C209.725 18.726 209.613 18.88 209.417 18.992C209.221 19.104 208.997 19.16 208.745 19.16H196.607C196.579 21.82 196.565 24.62 196.565 27.56C196.565 28.036 196.747 28.274 197.111 28.274H198.959C202.571 28.246 205.399 28.204 207.443 28.148C209.487 28.092 210.943 27.994 211.811 27.854C211.951 27.826 212.105 27.812 212.273 27.812C212.497 27.812 212.609 27.91 212.609 28.106C212.609 28.218 212.539 28.484 212.399 28.904C212.007 30.052 211.489 31.116 210.845 32.096C210.593 32.46 210.313 32.712 210.005 32.852C209.697 32.992 209.109 33.076 208.241 33.104L201.311 33.146L194.717 33.104ZM190.559 5.048C190.447 4.544 190.391 3.942 190.391 3.242C190.391 2.486 190.447 1.884 190.559 1.436C190.615 1.268 190.727 1.128 190.895 1.016C191.063 0.875999 191.273 0.805999 191.525 0.805999H209.921C210.173 0.805999 210.383 0.861999 210.551 0.974C210.719 1.058 210.831 1.184 210.887 1.352C210.999 1.66 211.055 2.276 211.055 3.2C211.055 4.096 210.999 4.712 210.887 5.048C210.859 5.244 210.747 5.398 210.551 5.51C210.355 5.622 210.131 5.678 209.879 5.678H191.567C191.315 5.678 191.091 5.622 190.895 5.51C190.699 5.398 190.587 5.244 190.559 5.048Z" fill="#2F66E6"/>
</svg>
