<svg width="35" height="35" viewBox="0 0 35 35" fill="none" xmlns="http://www.w3.org/2000/svg">
<circle cx="17.5" cy="17.5" r="17.5" fill="white"/>
<path d="M11.4996 10.2076L15.6173 13.6222C16.0033 13.9423 16.2201 14.3765 16.2201 14.8292C16.2201 15.282 16.0033 15.7161 15.6173 16.0363L15.014 16.5366L20.3382 20.9517L20.9414 20.4514C21.3275 20.1314 21.8511 19.9515 22.397 19.9515C22.9429 19.9515 23.4665 20.1314 23.8526 20.4514L27.9702 23.8661C28.3562 24.1862 28.573 24.6204 28.573 25.0731C28.573 25.5258 28.3562 25.96 27.9702 26.2802L27.4926 26.6763C26.8234 27.2312 26.029 27.6714 25.1547 27.9718C24.2804 28.2721 23.3433 28.4267 22.397 28.4267C21.4506 28.4267 20.5136 28.2721 19.6392 27.9718C18.7649 27.6714 17.9705 27.2312 17.3014 26.6763L8.11081 19.0548C7.44161 18.5 6.91076 17.8412 6.54859 17.1161C6.18641 16.3911 6 15.614 6 14.8292C6 14.0445 6.18641 13.2674 6.54859 12.5423C6.91076 11.8173 7.44161 11.1585 8.11081 10.6037L8.58846 10.2076C8.97455 9.88748 9.49812 9.70768 10.044 9.70768C10.59 9.70768 11.1136 9.88748 11.4996 10.2076ZM10.044 11.4146L9.5664 11.8107C9.08831 12.2071 8.70906 12.6777 8.45031 13.1956C8.19156 13.7135 8.05838 14.2686 8.05838 14.8292C8.05838 15.3899 8.19156 15.945 8.45031 16.4629C8.70906 16.9808 9.08831 17.4514 9.5664 17.8478L18.757 25.4692C19.235 25.8657 19.8024 26.1802 20.427 26.3948C21.0515 26.6093 21.721 26.7198 22.397 26.7198C23.073 26.7198 23.7424 26.6093 24.367 26.3948C24.9916 26.1802 25.559 25.8657 26.037 25.4692L26.5146 25.0731L22.397 21.6585L20.3382 23.3658L12.1029 16.5366L14.1617 14.8292L10.044 11.4146ZM19.3088 13.1219C19.0357 13.1219 18.7739 13.032 18.5809 12.8719C18.3878 12.7118 18.2793 12.4947 18.2793 12.2683C18.2793 12.0419 18.3878 11.8247 18.5809 11.6647C18.7739 11.5046 19.0357 11.4146 19.3088 11.4146C23.3296 11.4146 26.5764 14.1122 26.5764 17.4414C26.5764 17.6678 26.4679 17.885 26.2749 18.0451C26.0818 18.2052 25.82 18.2951 25.547 18.2951C25.274 18.2951 25.0121 18.2052 24.8191 18.0451C24.626 17.885 24.5176 17.6678 24.5176 17.4414C24.5176 15.0546 22.1911 13.1219 19.3088 13.1219ZM19.7823 9.70731C19.5093 9.70731 19.2474 9.61737 19.0544 9.45728C18.8613 9.29719 18.7529 9.08006 18.7529 8.85366C18.7529 8.62725 18.8613 8.41012 19.0544 8.25003C19.2474 8.08994 19.5093 8 19.7823 8C21.2071 8 22.618 8.23273 23.9344 8.6849C25.2508 9.13706 26.4469 9.79982 27.4544 10.6353C28.4619 11.4708 29.2611 12.4627 29.8064 13.5543C30.3516 14.646 30.6323 15.816 30.6323 16.9975C30.6323 17.2239 30.5238 17.4411 30.3308 17.6012C30.1377 17.7613 29.8759 17.8512 29.6029 17.8512C29.3299 17.8512 29.068 17.7613 28.875 17.6012C28.6819 17.4411 28.5735 17.2239 28.5735 16.9975C28.5735 15.064 27.6473 13.2098 25.9986 11.8426C24.3499 10.4754 22.1138 9.70731 19.7823 9.70731Z" fill="#3471FF"/>
</svg>
