<svg width="183" height="29" viewBox="0 0 183 29" fill="none" xmlns="http://www.w3.org/2000/svg">
<path d="M13.904 28.34C11.504 28.34 9.32 27.776 7.352 26.648C5.408 25.544 3.86 23.936 2.708 21.824C1.556 19.712 0.98 17.228 0.98 14.372C0.98 11.54 1.568 9.068 2.744 6.956C3.92 4.844 5.48 3.236 7.424 2.132C9.368 1.004 11.456 0.439999 13.688 0.439999C15.44 0.439999 17.036 0.739998 18.476 1.34C19.94 1.916 21.164 2.792 22.148 3.968C22.268 4.088 22.328 4.232 22.328 4.4C22.328 4.592 22.22 4.796 22.004 5.012C21.26 5.804 20.516 6.368 19.772 6.704C19.676 6.752 19.556 6.776 19.412 6.776C19.196 6.776 18.98 6.668 18.764 6.452C18.212 5.828 17.48 5.36 16.568 5.048C15.656 4.712 14.696 4.544 13.688 4.544C12.44 4.544 11.228 4.928 10.052 5.696C8.876 6.464 7.916 7.592 7.172 9.08C6.428 10.544 6.056 12.308 6.056 14.372C6.056 16.484 6.416 18.284 7.136 19.772C7.88 21.26 8.852 22.376 10.052 23.12C11.276 23.864 12.608 24.236 14.048 24.236C15.272 24.236 16.376 23.984 17.36 23.48C18.368 22.976 19.184 22.232 19.808 21.248C19.952 20.96 20.144 20.816 20.384 20.816C20.504 20.816 20.636 20.852 20.78 20.924C21.668 21.332 22.52 21.848 23.336 22.472C23.624 22.64 23.768 22.844 23.768 23.084C23.768 23.18 23.732 23.288 23.66 23.408C22.676 25.064 21.332 26.3 19.628 27.116C17.948 27.932 16.04 28.34 13.904 28.34ZM28.0422 28.34C27.2262 28.34 26.5302 28.316 25.9542 28.268C25.7862 28.244 25.7022 28.148 25.7022 27.98C25.7022 27.884 25.7382 27.74 25.8102 27.548C26.6502 25.676 28.3302 21.272 30.8502 14.336C33.3702 7.4 34.7502 3.536 34.9902 2.744C35.1342 2.216 35.2062 1.808 35.2062 1.52C35.2062 1.064 35.2422 0.775998 35.3142 0.655998C35.3862 0.511998 35.5902 0.439999 35.9262 0.439999C36.5022 0.439999 37.1742 0.511998 37.9422 0.655998C38.7342 0.775998 39.4302 0.919998 40.0302 1.088C40.5342 1.256 40.7142 1.52 40.5702 1.88L40.0302 3.536C39.1902 6.056 37.6542 10.316 35.4222 16.316C33.1902 22.316 31.7142 26.18 30.9942 27.908C30.8742 28.148 30.5262 28.28 29.9502 28.304L28.0422 28.34ZM34.9182 21.824C34.9182 21.704 35.0622 21.248 35.3502 20.456C35.6622 19.64 35.9142 19.052 36.1062 18.692C36.2022 18.524 36.2982 18.392 36.3942 18.296C36.5142 18.2 36.7062 18.152 36.9702 18.152H41.5422L41.2182 17.252C40.1142 14.084 39.4422 12.104 39.2022 11.312C39.1302 11.12 39.0942 10.928 39.0942 10.736C39.0942 10.544 39.1182 10.4 39.1662 10.304L41.0022 5.3C41.1462 4.844 41.3022 4.616 41.4702 4.616C41.5662 4.616 41.6502 4.736 41.7222 4.976C42.7302 7.856 44.1942 11.828 46.1142 16.892C48.0342 21.956 49.4262 25.508 50.2902 27.548C50.3622 27.74 50.3982 27.884 50.3982 27.98C50.3982 28.148 50.3142 28.244 50.1462 28.268C49.5702 28.316 48.8622 28.34 48.0222 28.34L46.0782 28.304C45.4542 28.28 45.1062 28.148 45.0342 27.908C44.4582 26.372 43.7622 24.464 42.9462 22.184H35.4222C35.0862 22.184 34.9182 22.064 34.9182 21.824ZM55.095 28.34C54.927 28.34 54.711 28.256 54.447 28.088C54.183 27.92 54.051 27.752 54.051 27.584V6.92C54.051 6.632 54.135 6.428 54.303 6.308C54.471 6.188 54.735 6.104 55.095 6.056C55.671 6.008 56.175 5.984 56.607 5.984C57.039 5.984 57.543 6.008 58.119 6.056C58.455 6.104 58.695 6.188 58.839 6.308C59.007 6.428 59.091 6.632 59.091 6.92V13.22H62.979C64.827 13.22 66.231 12.824 67.191 12.032C68.151 11.24 68.631 10.208 68.631 8.936C68.631 7.664 68.151 6.644 67.191 5.876C66.231 5.108 64.827 4.724 62.979 4.724H54.735C54.519 4.724 54.327 4.676 54.159 4.58C53.991 4.484 53.895 4.352 53.871 4.184C53.775 3.752 53.727 3.236 53.727 2.636C53.727 1.988 53.775 1.472 53.871 1.088C53.919 0.943999 54.015 0.823999 54.159 0.727999C54.303 0.607999 54.483 0.547999 54.699 0.547999H63.231C66.567 0.547999 69.147 1.292 70.971 2.78C72.795 4.268 73.707 6.32 73.707 8.936C73.707 10.856 73.191 12.5 72.159 13.868C71.151 15.212 69.699 16.184 67.803 16.784C69.075 18.68 70.983 21.632 73.527 25.64L74.751 27.512C74.847 27.632 74.895 27.764 74.895 27.908C74.895 28.076 74.799 28.184 74.607 28.232C74.031 28.28 73.299 28.304 72.411 28.304L70.359 28.268C69.831 28.244 69.483 28.112 69.315 27.872L62.835 17.396H59.091V26.792C59.091 26.96 59.019 27.104 58.875 27.224C58.731 27.344 58.479 27.476 58.119 27.62C57.711 27.788 57.159 27.944 56.463 28.088C55.791 28.256 55.335 28.34 55.095 28.34ZM79.9505 28.34C79.7825 28.34 79.5665 28.256 79.3025 28.088C79.0385 27.92 78.9065 27.752 78.9065 27.584V2.528C78.9065 2.096 78.8345 1.7 78.6905 1.34C78.5945 1.1 78.6185 0.895998 78.7625 0.727999C78.9065 0.559999 79.1585 0.463998 79.5185 0.439999C79.5665 0.439999 79.6505 0.439999 79.7705 0.439999C79.9145 0.415999 80.0345 0.415999 80.1305 0.439999C80.3465 0.415999 80.7305 0.403999 81.2825 0.403999C82.3625 0.403999 83.1905 0.427999 83.7665 0.475998C84.3425 0.499999 84.6905 0.632 84.8105 0.872L91.5425 13.688L98.1665 0.979998C98.3105 0.691999 98.5985 0.547999 99.0305 0.547999H102.991C103.375 0.547999 103.567 0.679999 103.567 0.943999C103.567 1.088 103.519 1.244 103.423 1.412L92.4785 21.932C92.4305 22.028 92.3105 22.112 92.1185 22.184C91.9505 22.232 91.7585 22.256 91.5425 22.256C91.0145 22.256 90.6905 22.148 90.5705 21.932L83.9465 9.116V26.792C83.9465 26.96 83.8745 27.104 83.7305 27.224C83.5865 27.344 83.3345 27.476 82.9745 27.62C82.5665 27.788 82.0145 27.944 81.3185 28.088C80.6465 28.256 80.1905 28.34 79.9505 28.34ZM99.1025 12.932C99.1025 12.668 99.1865 12.38 99.3545 12.068L103.279 4.328C103.543 3.848 103.747 3.608 103.891 3.608C104.059 3.608 104.143 3.836 104.143 4.292V26.792C104.143 26.96 104.071 27.104 103.927 27.224C103.783 27.344 103.531 27.476 103.171 27.62C102.763 27.788 102.211 27.944 101.515 28.088C100.843 28.256 100.387 28.34 100.147 28.34C99.9785 28.34 99.7625 28.256 99.4985 28.088C99.2345 27.92 99.1025 27.752 99.1025 27.584V12.932ZM121.795 28.34C119.467 28.34 117.343 27.788 115.423 26.684C113.503 25.58 111.979 23.972 110.851 21.86C109.747 19.748 109.195 17.252 109.195 14.372C109.195 11.492 109.747 9.008 110.851 6.92C111.979 4.808 113.503 3.2 115.423 2.096C117.343 0.991999 119.467 0.439999 121.795 0.439999C124.123 0.439999 126.235 0.991999 128.131 2.096C130.051 3.2 131.563 4.808 132.667 6.92C133.795 9.008 134.359 11.492 134.359 14.372C134.359 17.252 133.795 19.748 132.667 21.86C131.563 23.972 130.051 25.58 128.131 26.684C126.235 27.788 124.123 28.34 121.795 28.34ZM114.271 14.372C114.271 16.484 114.607 18.284 115.279 19.772C115.975 21.26 116.887 22.376 118.015 23.12C119.167 23.864 120.427 24.236 121.795 24.236C123.163 24.236 124.411 23.864 125.539 23.12C126.667 22.376 127.567 21.26 128.239 19.772C128.935 18.284 129.283 16.484 129.283 14.372C129.283 12.26 128.935 10.472 128.239 9.008C127.567 7.52 126.667 6.404 125.539 5.66C124.411 4.916 123.163 4.544 121.795 4.544C120.427 4.544 119.167 4.916 118.015 5.66C116.887 6.404 115.975 7.52 115.279 9.008C114.607 10.472 114.271 12.26 114.271 14.372ZM140.419 28.34C140.251 28.34 140.035 28.256 139.771 28.088C139.507 27.92 139.375 27.752 139.375 27.584V6.92C139.375 6.632 139.459 6.428 139.627 6.308C139.795 6.188 140.059 6.104 140.419 6.056C140.995 6.008 141.499 5.984 141.931 5.984C142.363 5.984 142.867 6.008 143.443 6.056C143.779 6.104 144.019 6.188 144.163 6.308C144.331 6.428 144.415 6.632 144.415 6.92V13.22H148.303C150.151 13.22 151.555 12.824 152.515 12.032C153.475 11.24 153.955 10.208 153.955 8.936C153.955 7.664 153.475 6.644 152.515 5.876C151.555 5.108 150.151 4.724 148.303 4.724H140.059C139.843 4.724 139.651 4.676 139.483 4.58C139.315 4.484 139.219 4.352 139.195 4.184C139.099 3.752 139.051 3.236 139.051 2.636C139.051 1.988 139.099 1.472 139.195 1.088C139.243 0.943999 139.339 0.823999 139.483 0.727999C139.627 0.607999 139.807 0.547999 140.023 0.547999H148.555C151.891 0.547999 154.471 1.292 156.295 2.78C158.119 4.268 159.031 6.32 159.031 8.936C159.031 10.856 158.515 12.5 157.483 13.868C156.475 15.212 155.023 16.184 153.127 16.784C154.399 18.68 156.307 21.632 158.851 25.64L160.075 27.512C160.171 27.632 160.219 27.764 160.219 27.908C160.219 28.076 160.123 28.184 159.931 28.232C159.355 28.28 158.623 28.304 157.735 28.304L155.683 28.268C155.155 28.244 154.807 28.112 154.639 27.872L148.159 17.396H144.415V26.792C144.415 26.96 144.343 27.104 144.199 27.224C144.055 27.344 143.803 27.476 143.443 27.62C143.035 27.788 142.483 27.944 141.787 28.088C141.115 28.256 140.659 28.34 140.419 28.34ZM167.615 28.232C166.439 28.208 165.587 27.956 165.059 27.476C164.531 26.996 164.255 26.216 164.231 25.136V19.916V6.92C164.231 6.632 164.315 6.428 164.483 6.308C164.651 6.188 164.915 6.104 165.275 6.056C165.851 6.008 166.355 5.984 166.787 5.984C167.219 5.984 167.723 6.008 168.299 6.056C168.635 6.104 168.875 6.188 169.019 6.308C169.187 6.428 169.271 6.632 169.271 6.92C169.271 8.864 169.259 10.64 169.235 12.248H179.675C179.891 12.248 180.071 12.296 180.215 12.392C180.359 12.464 180.455 12.572 180.503 12.716C180.599 12.98 180.647 13.484 180.647 14.228C180.647 14.948 180.599 15.452 180.503 15.74C180.479 15.908 180.383 16.04 180.215 16.136C180.047 16.232 179.855 16.28 179.639 16.28H169.235C169.211 18.56 169.199 20.96 169.199 23.48C169.199 23.888 169.355 24.092 169.667 24.092H171.251C174.347 24.068 176.771 24.032 178.523 23.984C180.275 23.936 181.523 23.852 182.267 23.732C182.387 23.708 182.519 23.696 182.663 23.696C182.855 23.696 182.951 23.78 182.951 23.948C182.951 24.044 182.891 24.272 182.771 24.632C182.435 25.616 181.991 26.528 181.439 27.368C181.223 27.68 180.983 27.896 180.719 28.016C180.455 28.136 179.951 28.208 179.207 28.232L173.267 28.268L167.615 28.232ZM164.051 4.184C163.955 3.752 163.907 3.236 163.907 2.636C163.907 1.988 163.955 1.472 164.051 1.088C164.099 0.943999 164.195 0.823999 164.339 0.727999C164.483 0.607999 164.663 0.547999 164.879 0.547999H180.647C180.863 0.547999 181.043 0.595999 181.187 0.692C181.331 0.763999 181.427 0.871999 181.475 1.016C181.571 1.28 181.619 1.808 181.619 2.6C181.619 3.368 181.571 3.896 181.475 4.184C181.451 4.352 181.355 4.484 181.187 4.58C181.019 4.676 180.827 4.724 180.611 4.724H164.915C164.699 4.724 164.507 4.676 164.339 4.58C164.171 4.484 164.075 4.352 164.051 4.184Z" fill="white"/>
</svg>
