<svg width="175" height="36" viewBox="0 0 175 36" fill="none" xmlns="http://www.w3.org/2000/svg">
<path d="M17.5002 25.7878L11.4482 29.4336C11.1808 29.6037 10.9013 29.6766 10.6096 29.6523C10.3179 29.628 10.0627 29.5308 9.84399 29.3607C9.62524 29.1905 9.4551 28.9781 9.33357 28.7234C9.21204 28.4687 9.18774 28.1828 9.26065 27.8659L10.8648 20.9753L5.50544 16.3451C5.26239 16.1263 5.11072 15.8769 5.05044 15.5969C4.99017 15.3169 5.00815 15.0437 5.1044 14.7773C5.20065 14.511 5.34649 14.2922 5.5419 14.1211C5.73732 13.95 6.00468 13.8406 6.34399 13.793L13.4169 13.1732L16.1513 6.68359C16.2728 6.39193 16.4614 6.17318 16.7171 6.02734C16.9728 5.88151 17.2338 5.80859 17.5002 5.80859C17.7666 5.80859 18.0277 5.88151 18.2834 6.02734C18.5391 6.17318 18.7277 6.39193 18.8492 6.68359L21.5836 13.1732L28.6565 13.793C28.9968 13.8416 29.2641 13.951 29.4586 14.1211C29.653 14.2912 29.7988 14.51 29.8961 14.7773C29.9933 15.0447 30.0118 15.3184 29.9515 15.5984C29.8912 15.8784 29.7391 16.1273 29.495 16.3451L24.1357 20.9753L25.7398 27.8659C25.8127 28.1819 25.7884 28.4677 25.6669 28.7234C25.5454 28.9791 25.3752 29.1915 25.1565 29.3607C24.9377 29.5298 24.6825 29.6271 24.3909 29.6523C24.0992 29.6776 23.8197 29.6047 23.5523 29.4336L17.5002 25.7878Z" fill="#F7DFA7"/>
<path d="M52.5002 25.7878L46.4482 29.4336C46.1808 29.6037 45.9013 29.6766 45.6096 29.6523C45.3179 29.628 45.0627 29.5308 44.844 29.3607C44.6252 29.1905 44.4551 28.9781 44.3336 28.7234C44.212 28.4687 44.1877 28.1828 44.2607 27.8659L45.8648 20.9753L40.5054 16.3451C40.2624 16.1263 40.1107 15.8769 40.0504 15.5969C39.9902 15.3169 40.0082 15.0437 40.1044 14.7773C40.2007 14.511 40.3465 14.2922 40.5419 14.1211C40.7373 13.95 41.0047 13.8406 41.344 13.793L48.4169 13.1732L51.1513 6.68359C51.2728 6.39193 51.4614 6.17318 51.7171 6.02734C51.9728 5.88151 52.2338 5.80859 52.5002 5.80859C52.7666 5.80859 53.0277 5.88151 53.2834 6.02734C53.5391 6.17318 53.7277 6.39193 53.8492 6.68359L56.5836 13.1732L63.6565 13.793C63.9968 13.8416 64.2641 13.951 64.4586 14.1211C64.653 14.2912 64.7988 14.51 64.8961 14.7773C64.9933 15.0447 65.0118 15.3184 64.9515 15.5984C64.8912 15.8784 64.7391 16.1273 64.495 16.3451L59.1357 20.9753L60.7398 27.8659C60.8127 28.1819 60.7884 28.4677 60.6669 28.7234C60.5454 28.9791 60.3752 29.1915 60.1565 29.3607C59.9377 29.5298 59.6825 29.6271 59.3909 29.6523C59.0992 29.6776 58.8197 29.6047 58.5523 29.4336L52.5002 25.7878Z" fill="#F7DFA7"/>
<path d="M87.5002 25.7878L81.4482 29.4336C81.1808 29.6037 80.9013 29.6766 80.6096 29.6523C80.3179 29.628 80.0627 29.5308 79.844 29.3607C79.6252 29.1905 79.4551 28.9781 79.3336 28.7234C79.212 28.4687 79.1877 28.1828 79.2607 27.8659L80.8648 20.9753L75.5054 16.3451C75.2624 16.1263 75.1107 15.8769 75.0504 15.5969C74.9902 15.3169 75.0082 15.0437 75.1044 14.7773C75.2007 14.511 75.3465 14.2922 75.5419 14.1211C75.7373 13.95 76.0047 13.8406 76.344 13.793L83.4169 13.1732L86.1513 6.68359C86.2728 6.39193 86.4614 6.17318 86.7171 6.02734C86.9728 5.88151 87.2338 5.80859 87.5002 5.80859C87.7666 5.80859 88.0277 5.88151 88.2834 6.02734C88.5391 6.17318 88.7277 6.39193 88.8492 6.68359L91.5836 13.1732L98.6565 13.793C98.9968 13.8416 99.2641 13.951 99.4586 14.1211C99.653 14.2912 99.7988 14.51 99.8961 14.7773C99.9933 15.0447 100.012 15.3184 99.9515 15.5984C99.8912 15.8784 99.7391 16.1273 99.495 16.3451L94.1357 20.9753L95.7398 27.8659C95.8127 28.1819 95.7884 28.4677 95.6669 28.7234C95.5454 28.9791 95.3752 29.1915 95.1565 29.3607C94.9377 29.5298 94.6825 29.6271 94.3909 29.6523C94.0992 29.6776 93.8197 29.6047 93.5523 29.4336L87.5002 25.7878Z" fill="#F7DFA7"/>
<path d="M122.5 25.7878L116.448 29.4336C116.181 29.6037 115.901 29.6766 115.61 29.6523C115.318 29.628 115.063 29.5308 114.844 29.3607C114.625 29.1905 114.455 28.9781 114.334 28.7234C114.212 28.4687 114.188 28.1828 114.261 27.8659L115.865 20.9753L110.505 16.3451C110.262 16.1263 110.111 15.8769 110.05 15.5969C109.99 15.3169 110.008 15.0437 110.104 14.7773C110.201 14.511 110.346 14.2922 110.542 14.1211C110.737 13.95 111.005 13.8406 111.344 13.793L118.417 13.1732L121.151 6.68359C121.273 6.39193 121.461 6.17318 121.717 6.02734C121.973 5.88151 122.234 5.80859 122.5 5.80859C122.767 5.80859 123.028 5.88151 123.283 6.02734C123.539 6.17318 123.728 6.39193 123.849 6.68359L126.584 13.1732L133.656 13.793C133.997 13.8416 134.264 13.951 134.459 14.1211C134.653 14.2912 134.799 14.51 134.896 14.7773C134.993 15.0447 135.012 15.3184 134.951 15.5984C134.891 15.8784 134.739 16.1273 134.495 16.3451L129.136 20.9753L130.74 27.8659C130.813 28.1819 130.788 28.4677 130.667 28.7234C130.545 28.9791 130.375 29.1915 130.156 29.3607C129.938 29.5298 129.683 29.6271 129.391 29.6523C129.099 29.6776 128.82 29.6047 128.552 29.4336L122.5 25.7878Z" fill="#F7DFA7"/>
<path d="M157.5 25.7878L151.448 29.4336C151.181 29.6037 150.901 29.6766 150.61 29.6523C150.318 29.628 150.063 29.5308 149.844 29.3607C149.625 29.1905 149.455 28.9781 149.334 28.7234C149.212 28.4687 149.188 28.1828 149.261 27.8659L150.865 20.9753L145.505 16.3451C145.262 16.1263 145.111 15.8769 145.05 15.5969C144.99 15.3169 145.008 15.0437 145.104 14.7773C145.201 14.511 145.346 14.2922 145.542 14.1211C145.737 13.95 146.005 13.8406 146.344 13.793L153.417 13.1732L156.151 6.68359C156.273 6.39193 156.461 6.17318 156.717 6.02734C156.973 5.88151 157.234 5.80859 157.5 5.80859C157.767 5.80859 158.028 5.88151 158.283 6.02734C158.539 6.17318 158.728 6.39193 158.849 6.68359L161.584 13.1732L168.656 13.793C168.997 13.8416 169.264 13.951 169.459 14.1211C169.653 14.2912 169.799 14.51 169.896 14.7773C169.993 15.0447 170.012 15.3184 169.951 15.5984C169.891 15.8784 169.739 16.1273 169.495 16.3451L164.136 20.9753L165.74 27.8659C165.813 28.1819 165.788 28.4677 165.667 28.7234C165.545 28.9791 165.375 29.1915 165.156 29.3607C164.938 29.5298 164.683 29.6271 164.391 29.6523C164.099 29.6776 163.82 29.6047 163.552 29.4336L157.5 25.7878Z" fill="#F7DFA7"/>
</svg>
